<svg width="19" height="34" viewBox="0 0 19 34" fill="none" xmlns="http://www.w3.org/2000/svg">
<path d="M17.9993 30.5454L17.9993 30.5454L4.63511 17.0003L17.9989 3.45569C18.1581 3.29463 18.2842 3.10366 18.37 2.8939C18.4559 2.68415 18.5 2.45952 18.5 2.23282C18.5 2.00613 18.4559 1.7815 18.37 1.57175C18.2842 1.36211 18.1583 1.17123 17.9991 1.01022C17.8404 0.849033 17.6514 0.720769 17.443 0.633089C17.2343 0.545287 17.0103 0.5 16.7839 0.5C16.5575 0.5 16.3334 0.545287 16.1247 0.633089C15.9161 0.720835 15.7271 0.849229 15.5682 1.01059C15.5681 1.01068 15.5681 1.01077 15.568 1.01086L1.00114 15.7775C0.841853 15.9385 0.715832 16.1295 0.629968 16.3393C0.544109 16.549 0.5 16.7736 0.5 17.0003C0.5 17.227 0.544109 17.4516 0.629968 17.6614C0.715752 17.871 0.841619 18.0618 1.0007 18.2227H1.0007L1.00114 18.2232L15.5684 32.9902C15.8896 33.3158 16.3267 33.5 16.7839 33.5C17.2411 33.5 17.6781 33.3158 17.9993 32.9902C18.3203 32.6649 18.4994 32.225 18.4994 31.7678C18.4994 31.3106 18.3203 30.8708 17.9993 30.5454Z" fill="white" stroke="white"/>
</svg>
